<svg width="544" height="499" viewBox="0 0 544 499" fill="none" xmlns="http://www.w3.org/2000/svg">
<g clip-path="url(#clip0_81_692)">
<path d="M272 149C189.705 149 123 215.705 123 298H272C354.295 298 421 231.295 421 149H272Z" fill="url(#paint0_linear_81_692)"/>
<path d="M346.482 139.915C347.935 139.915 349.189 138.879 349.48 137.443C358.147 92.3074 364.289 86.1657 409.425 77.4982C411.079 77.1893 412.169 75.5903 411.842 73.9368C411.606 72.7011 410.661 71.7563 409.425 71.52C364.289 62.8526 358.111 56.7109 349.48 11.5748C349.171 9.92126 347.572 8.83102 345.918 9.15809C344.701 9.39431 343.738 10.3392 343.502 11.5748C334.834 56.7109 328.693 62.8526 283.556 71.52C281.903 71.8289 280.813 73.428 281.14 75.0815C281.376 76.3171 282.321 77.262 283.556 77.4982C328.693 86.1657 334.871 92.3437 343.502 137.443C343.774 138.879 345.028 139.915 346.5 139.915H346.482Z" fill="#FFA400"/>
<path d="M272 0V149H123C123 66.7593 189.759 0 272 0Z" fill="url(#paint1_linear_81_692)"/>
</g>
<path d="M103.384 402.599C99.9441 395.969 95.1667 390.996 89.0515 387.68C82.9364 384.237 75.8658 382.516 67.8397 382.516C59.0492 382.516 51.2142 384.493 44.3347 388.445C37.4552 392.398 32.0407 398.009 28.0914 405.277C24.2694 412.546 22.3584 420.961 22.3584 430.525C22.3584 440.089 24.2694 448.568 28.0914 455.964C32.0407 463.232 37.4552 468.843 44.3347 472.796C51.2142 476.749 59.0492 478.725 67.8397 478.725C79.6878 478.725 89.3063 475.41 96.6955 468.779C104.085 462.148 108.607 453.159 110.263 441.81H60.3869V424.404H133.577V441.427C132.176 451.756 128.481 461.256 122.494 469.927C116.633 478.598 108.926 485.547 99.3708 490.775C89.9433 495.876 79.433 498.426 67.8397 498.426C55.3546 498.426 43.9525 495.557 33.6332 489.819C23.3139 483.953 15.0967 475.856 8.98159 465.528C2.99386 455.199 0 443.531 0 430.525C0 417.519 2.99386 405.851 8.98159 395.522C15.0967 385.194 23.3139 377.16 33.6332 371.422C44.0799 365.557 55.482 362.624 67.8397 362.624C81.9809 362.624 94.5297 366.131 105.486 373.144C116.57 380.03 124.596 389.848 129.564 402.599H103.384Z" fill="#F1E3E4"/>
<path d="M251.568 442.001C251.568 445.954 251.313 449.525 250.804 452.712H170.352C170.989 461.128 174.11 467.887 179.715 472.987C185.321 478.088 192.201 480.638 200.354 480.638C212.075 480.638 220.356 475.729 225.197 465.91H248.702C245.517 475.601 239.72 483.571 231.312 489.819C223.031 495.94 212.712 499 200.354 499C190.29 499 181.244 496.769 173.218 492.306C165.319 487.715 159.077 481.339 154.491 473.178C150.032 464.89 147.802 455.326 147.802 444.488C147.802 433.649 149.968 424.149 154.299 415.988C158.758 407.7 164.937 401.324 172.836 396.861C180.862 392.398 190.035 390.167 200.354 390.167C210.291 390.167 219.145 392.335 226.917 396.67C234.688 401.006 240.739 407.126 245.071 415.032C249.402 422.81 251.568 431.8 251.568 442.001ZM228.828 435.116C228.7 427.082 225.834 420.643 220.228 415.797C214.623 410.952 207.679 408.529 199.399 408.529C191.882 408.529 185.448 410.952 180.098 415.797C174.747 420.515 171.562 426.955 170.543 435.116H228.828Z" fill="#F1E3E4"/>
<path d="M326.132 390.167C334.413 390.167 341.802 391.888 348.299 395.331C354.924 398.774 360.084 403.875 363.778 410.633C367.473 417.391 369.32 425.552 369.32 435.116V497.279H347.726V438.367C347.726 428.931 345.369 421.727 340.656 416.754C335.942 411.653 329.508 409.103 321.355 409.103C313.201 409.103 306.704 411.653 301.863 416.754C297.149 421.727 294.792 428.931 294.792 438.367V497.279H273.007V391.888H294.792V403.938C298.359 399.603 302.882 396.224 308.36 393.801C313.966 391.378 319.89 390.167 326.132 390.167Z" fill="#F1E3E4"/>
<path d="M408.192 377.926C404.243 377.926 400.93 376.587 398.255 373.909C395.58 371.231 394.242 367.916 394.242 363.963C394.242 360.01 395.58 356.694 398.255 354.017C400.93 351.339 404.243 350 408.192 350C412.014 350 415.263 351.339 417.938 354.017C420.614 356.694 421.951 360.01 421.951 363.963C421.951 367.916 420.614 371.231 417.938 373.909C415.263 376.587 412.014 377.926 408.192 377.926ZM418.894 391.888V497.279H397.109V391.888H418.894Z" fill="#F1E3E4"/>
<path d="M544 442.001C544 445.954 543.745 449.525 543.236 452.712H462.783C463.42 461.128 466.542 467.887 472.147 472.987C477.753 478.088 484.632 480.638 492.786 480.638C504.506 480.638 512.787 475.729 517.628 465.91H541.134C537.949 475.601 532.152 483.571 523.744 489.819C515.463 495.94 505.143 499 492.786 499C482.721 499 473.676 496.769 465.65 492.306C457.751 487.715 451.509 481.339 446.922 473.178C442.463 464.89 440.234 455.326 440.234 444.488C440.234 433.649 442.4 424.149 446.731 415.988C451.19 407.7 457.369 401.324 465.268 396.861C473.294 392.398 482.467 390.167 492.786 390.167C502.723 390.167 511.577 392.335 519.348 396.67C527.12 401.006 533.171 407.126 537.503 415.032C541.834 422.81 544 431.8 544 442.001ZM521.259 435.116C521.132 427.082 518.265 420.643 512.66 415.797C507.054 410.952 500.111 408.529 491.83 408.529C484.314 408.529 477.88 410.952 472.529 415.797C467.179 420.515 463.994 426.955 462.975 435.116H521.259Z" fill="#F1E3E4"/>
<path d="M134.16 349.68H143.68C145.04 349.68 146.347 349.813 147.6 350.08C148.88 350.347 150 350.8 150.96 351.44C151.92 352.053 152.68 352.893 153.24 353.96C153.827 355 154.12 356.307 154.12 357.88C154.12 359.667 153.813 361.107 153.2 362.2C152.587 363.293 151.76 364.147 150.72 364.76C149.68 365.347 148.467 365.747 147.08 365.96C145.72 366.173 144.293 366.28 142.8 366.28H139.2V378H134.16V349.68ZM142.24 361.96C142.96 361.96 143.707 361.933 144.48 361.88C145.253 361.827 145.96 361.667 146.6 361.4C147.267 361.133 147.8 360.733 148.2 360.2C148.627 359.667 148.84 358.92 148.84 357.96C148.84 357.08 148.653 356.387 148.28 355.88C147.907 355.347 147.427 354.947 146.84 354.68C146.253 354.387 145.6 354.2 144.88 354.12C144.16 354.04 143.467 354 142.8 354H139.2V361.96H142.24ZM165.413 349.68H175.253C176.613 349.68 177.92 349.813 179.173 350.08C180.453 350.32 181.586 350.747 182.573 351.36C183.56 351.973 184.346 352.8 184.933 353.84C185.52 354.88 185.813 356.2 185.813 357.8C185.813 359.853 185.24 361.573 184.093 362.96C182.973 364.347 181.36 365.187 179.253 365.48L186.773 378H180.693L174.133 366H170.453V378H165.413V349.68ZM174.373 361.68C175.093 361.68 175.813 361.653 176.533 361.6C177.253 361.52 177.906 361.36 178.493 361.12C179.106 360.853 179.6 360.467 179.973 359.96C180.346 359.427 180.533 358.693 180.533 357.76C180.533 356.933 180.36 356.267 180.013 355.76C179.666 355.253 179.213 354.88 178.653 354.64C178.093 354.373 177.466 354.2 176.773 354.12C176.106 354.04 175.453 354 174.813 354H170.453V361.68H174.373ZM195.888 363.96C195.888 361.693 196.262 359.64 197.008 357.8C197.755 355.933 198.782 354.347 200.088 353.04C201.422 351.733 202.995 350.733 204.808 350.04C206.648 349.32 208.662 348.96 210.848 348.96C213.062 348.933 215.088 349.267 216.928 349.96C218.768 350.627 220.355 351.613 221.688 352.92C223.022 354.227 224.062 355.8 224.808 357.64C225.555 359.48 225.928 361.533 225.928 363.8C225.928 366.013 225.555 368.027 224.808 369.84C224.062 371.653 223.022 373.213 221.688 374.52C220.355 375.827 218.768 376.853 216.928 377.6C215.088 378.32 213.062 378.693 210.848 378.72C208.662 378.72 206.648 378.373 204.808 377.68C202.995 376.96 201.422 375.96 200.088 374.68C198.782 373.373 197.755 371.813 197.008 370C196.262 368.187 195.888 366.173 195.888 363.96ZM201.168 363.64C201.168 365.16 201.395 366.56 201.848 367.84C202.328 369.12 202.995 370.227 203.848 371.16C204.702 372.093 205.715 372.827 206.888 373.36C208.088 373.893 209.422 374.16 210.888 374.16C212.355 374.16 213.688 373.893 214.888 373.36C216.088 372.827 217.115 372.093 217.968 371.16C218.822 370.227 219.475 369.12 219.928 367.84C220.408 366.56 220.648 365.16 220.648 363.64C220.648 362.227 220.408 360.907 219.928 359.68C219.475 358.453 218.822 357.387 217.968 356.48C217.115 355.547 216.088 354.827 214.888 354.32C213.688 353.787 212.355 353.52 210.888 353.52C209.422 353.52 208.088 353.787 206.888 354.32C205.715 354.827 204.702 355.547 203.848 356.48C202.995 357.387 202.328 358.453 201.848 359.68C201.395 360.907 201.168 362.227 201.168 363.64ZM262.689 375.92C259.195 377.787 255.289 378.72 250.969 378.72C248.782 378.72 246.769 378.373 244.929 377.68C243.115 376.96 241.542 375.96 240.209 374.68C238.902 373.373 237.875 371.813 237.129 370C236.382 368.187 236.009 366.173 236.009 363.96C236.009 361.693 236.382 359.64 237.129 357.8C237.875 355.933 238.902 354.347 240.209 353.04C241.542 351.733 243.115 350.733 244.929 350.04C246.769 349.32 248.782 348.96 250.969 348.96C253.129 348.96 255.155 349.227 257.049 349.76C258.942 350.267 260.635 351.187 262.129 352.52L258.409 356.28C257.502 355.4 256.395 354.72 255.089 354.24C253.809 353.76 252.449 353.52 251.009 353.52C249.542 353.52 248.209 353.787 247.009 354.32C245.835 354.827 244.822 355.547 243.969 356.48C243.115 357.387 242.449 358.453 241.969 359.68C241.515 360.907 241.289 362.227 241.289 363.64C241.289 365.16 241.515 366.56 241.969 367.84C242.449 369.12 243.115 370.227 243.969 371.16C244.822 372.093 245.835 372.827 247.009 373.36C248.209 373.893 249.542 374.16 251.009 374.16C252.289 374.16 253.489 374.04 254.609 373.8C255.755 373.56 256.769 373.187 257.649 372.68V366H251.849V361.44H262.689V375.92ZM275.462 349.68H285.302C286.662 349.68 287.968 349.813 289.222 350.08C290.502 350.32 291.635 350.747 292.622 351.36C293.608 351.973 294.395 352.8 294.982 353.84C295.568 354.88 295.862 356.2 295.862 357.8C295.862 359.853 295.288 361.573 294.142 362.96C293.022 364.347 291.408 365.187 289.302 365.48L296.822 378H290.742L284.182 366H280.502V378H275.462V349.68ZM284.422 361.68C285.142 361.68 285.862 361.653 286.582 361.6C287.302 361.52 287.955 361.36 288.542 361.12C289.155 360.853 289.648 360.467 290.022 359.96C290.395 359.427 290.582 358.693 290.582 357.76C290.582 356.933 290.408 356.267 290.062 355.76C289.715 355.253 289.262 354.88 288.702 354.64C288.142 354.373 287.515 354.2 286.822 354.12C286.155 354.04 285.502 354 284.862 354H280.502V361.68H284.422ZM316.617 349.68H320.977L333.177 378H327.417L324.777 371.52H312.497L309.937 378H304.297L316.617 349.68ZM323.017 367.2L318.657 355.68L314.217 367.2H323.017ZM343.244 349.68H350.924L358.484 369.52L366.124 349.68H373.724V378H368.924V354.48H368.844L360.244 378H356.724L348.124 354.48H348.044V378H343.244V349.68Z" fill="#F1E3E4"/>
<defs>
<linearGradient id="paint0_linear_81_692" x1="123" y1="223.5" x2="421" y2="223.5" gradientUnits="userSpaceOnUse">
<stop stop-color="#6C63FF"/>
<stop offset="1" stop-color="#FF4081"/>
</linearGradient>
<linearGradient id="paint1_linear_81_692" x1="123" y1="74.5" x2="272" y2="74.5" gradientUnits="userSpaceOnUse">
<stop stop-color="#6C63FF"/>
<stop offset="1" stop-color="#FF4081"/>
</linearGradient>
<clipPath id="clip0_81_692">
<rect width="298" height="298" fill="white" transform="translate(123)"/>
</clipPath>
</defs>
</svg>
