<svg width="770" height="161" viewBox="0 0 770 161" fill="none" xmlns="http://www.w3.org/2000/svg">
<g clip-path="url(#clip0_338_12459)">
<path d="M93 80.5C41.6345 80.5 0 116.315 0 160.5H93C144.365 160.5 186 124.685 186 80.5H93Z" fill="url(#paint0_linear_338_12459)"/>
<path d="M139.489 75.622C140.396 75.622 141.178 75.0659 141.36 74.2952C146.77 50.061 150.603 46.7635 178.775 42.1098C179.807 41.944 180.488 41.0854 180.284 40.1976C180.136 39.5342 179.547 39.0269 178.775 38.9001C150.603 34.2464 146.747 30.9488 141.36 6.71469C141.167 5.82688 140.169 5.24151 139.137 5.41712C138.377 5.54395 137.776 6.05127 137.629 6.71469C132.219 30.9488 128.385 34.2464 100.213 38.9001C99.181 39.0659 98.5005 39.9244 98.7047 40.8122C98.8521 41.4757 99.4419 41.983 100.213 42.1098C128.385 46.7635 132.241 50.0805 137.629 74.2952C137.799 75.0659 138.581 75.622 139.5 75.622H139.489Z" fill="#FFA400"/>
<path d="M93 0.5V80.5H0C0 36.3439 41.6685 0.5 93 0.5Z" fill="url(#paint1_linear_338_12459)"/>
</g>
<path d="M329.384 64.5995C325.944 57.9688 321.167 52.9957 315.052 49.6804C308.936 46.2375 301.866 44.5161 293.84 44.5161C285.049 44.5161 277.214 46.4925 270.335 50.4454C263.455 54.3984 258.041 60.009 254.091 67.2773C250.269 74.5456 248.358 82.9615 248.358 92.525C248.358 102.089 250.269 110.568 254.091 117.964C258.041 125.232 263.455 130.843 270.335 134.796C277.214 138.749 285.049 140.725 293.84 140.725C305.688 140.725 315.306 137.41 322.695 130.779C330.085 124.148 334.607 115.159 336.263 103.81H286.387V86.4044H359.577V103.427C358.176 113.756 354.481 123.256 348.494 131.927C342.633 140.598 334.926 147.547 325.371 152.775C315.943 157.876 305.433 160.426 293.84 160.426C281.355 160.426 269.952 157.557 259.633 151.819C249.314 145.953 241.097 137.856 234.982 127.528C228.994 117.199 226 105.531 226 92.525C226 79.5186 228.994 67.8511 234.982 57.5225C241.097 47.1938 249.314 39.1605 259.633 33.4223C270.08 27.5567 281.482 24.6239 293.84 24.6239C307.981 24.6239 320.53 28.1305 331.486 35.1438C342.57 42.0295 350.596 51.8481 355.564 64.5995H329.384Z" fill="#1C1D21"/>
<path d="M477.568 104.001C477.568 107.954 477.313 111.525 476.804 114.712H396.352C396.989 123.128 400.11 129.887 405.715 134.987C411.321 140.088 418.201 142.638 426.354 142.638C438.075 142.638 446.356 137.729 451.197 127.91H474.702C471.517 137.601 465.72 145.571 457.312 151.819C449.031 157.94 438.712 161 426.354 161C416.29 161 407.244 158.769 399.218 154.306C391.319 149.715 385.077 143.339 380.491 135.178C376.032 126.89 373.802 117.326 373.802 106.488C373.802 95.6491 375.968 86.1493 380.299 77.9885C384.758 69.7 390.937 63.3243 398.836 58.8614C406.862 54.3984 416.035 52.1669 426.354 52.1669C436.291 52.1669 445.145 54.3346 452.917 58.6701C460.688 63.0056 466.739 69.1262 471.071 77.0321C475.402 84.8104 477.568 93.8002 477.568 104.001ZM454.828 97.1155C454.7 89.0822 451.834 82.6427 446.228 77.7972C440.623 72.9517 433.679 70.5289 425.399 70.5289C417.882 70.5289 411.448 72.9517 406.098 77.7972C400.747 82.5152 397.562 88.9546 396.543 97.1155H454.828Z" fill="#1C1D21"/>
<path d="M552.132 52.1669C560.413 52.1669 567.802 53.8883 574.299 57.3312C580.924 60.7741 586.084 65.8746 589.778 72.6329C593.473 79.3911 595.32 87.552 595.32 97.1155V159.279H573.726V100.367C573.726 90.9311 571.369 83.7266 566.656 78.7535C561.942 73.653 555.508 71.1027 547.355 71.1027C539.201 71.1027 532.704 73.653 527.863 78.7535C523.149 83.7266 520.792 90.9311 520.792 100.367V159.279H499.007V53.8883H520.792V65.9384C524.359 61.6029 528.882 58.2238 534.36 55.801C539.966 53.3783 545.89 52.1669 552.132 52.1669Z" fill="#1C1D21"/>
<path d="M634.192 39.9256C630.243 39.9256 626.93 38.5867 624.255 35.9089C621.58 33.2311 620.242 29.9157 620.242 25.9628C620.242 22.0098 621.58 18.6945 624.255 16.0167C626.93 13.3389 630.243 12 634.192 12C638.014 12 641.263 13.3389 643.938 16.0167C646.614 18.6945 647.951 22.0098 647.951 25.9628C647.951 29.9157 646.614 33.2311 643.938 35.9089C641.263 38.5867 638.014 39.9256 634.192 39.9256ZM644.894 53.8883V159.279H623.109V53.8883H644.894Z" fill="#1C1D21"/>
<path d="M770 104.001C770 107.954 769.745 111.525 769.236 114.712H688.783C689.42 123.128 692.542 129.887 698.147 134.987C703.753 140.088 710.632 142.638 718.786 142.638C730.506 142.638 738.787 137.729 743.628 127.91H767.134C763.949 137.601 758.152 145.571 749.744 151.819C741.463 157.94 731.143 161 718.786 161C708.721 161 699.676 158.769 691.65 154.306C683.751 149.715 677.509 143.339 672.922 135.178C668.463 126.89 666.234 117.326 666.234 106.488C666.234 95.6491 668.4 86.1493 672.731 77.9885C677.19 69.7 683.369 63.3243 691.268 58.8614C699.294 54.3984 708.467 52.1669 718.786 52.1669C728.723 52.1669 737.577 54.3346 745.348 58.6701C753.12 63.0056 759.171 69.1262 763.503 77.0321C767.834 84.8104 770 93.8002 770 104.001ZM747.259 97.1155C747.132 89.0822 744.265 82.6427 738.66 77.7972C733.054 72.9517 726.111 70.5289 717.83 70.5289C710.314 70.5289 703.88 72.9517 698.529 77.7972C693.179 82.5152 689.994 88.9546 688.975 97.1155H747.259Z" fill="#1C1D21"/>
<path d="M360.16 11.68H369.68C371.04 11.68 372.347 11.8133 373.6 12.08C374.88 12.3467 376 12.8 376.96 13.44C377.92 14.0533 378.68 14.8933 379.24 15.96C379.827 17 380.12 18.3067 380.12 19.88C380.12 21.6667 379.813 23.1067 379.2 24.2C378.587 25.2933 377.76 26.1467 376.72 26.76C375.68 27.3467 374.467 27.7467 373.08 27.96C371.72 28.1733 370.293 28.28 368.8 28.28H365.2V40H360.16V11.68ZM368.24 23.96C368.96 23.96 369.707 23.9333 370.48 23.88C371.253 23.8267 371.96 23.6667 372.6 23.4C373.267 23.1333 373.8 22.7333 374.2 22.2C374.627 21.6667 374.84 20.92 374.84 19.96C374.84 19.08 374.653 18.3867 374.28 17.88C373.907 17.3467 373.427 16.9467 372.84 16.68C372.253 16.3867 371.6 16.2 370.88 16.12C370.16 16.04 369.467 16 368.8 16H365.2V23.96H368.24ZM391.413 11.68H401.253C402.613 11.68 403.92 11.8133 405.173 12.08C406.453 12.32 407.586 12.7467 408.573 13.36C409.56 13.9733 410.346 14.8 410.933 15.84C411.52 16.88 411.813 18.2 411.813 19.8C411.813 21.8533 411.24 23.5733 410.093 24.96C408.973 26.3467 407.36 27.1867 405.253 27.48L412.773 40H406.693L400.133 28H396.453V40H391.413V11.68ZM400.373 23.68C401.093 23.68 401.813 23.6533 402.533 23.6C403.253 23.52 403.906 23.36 404.493 23.12C405.106 22.8533 405.6 22.4667 405.973 21.96C406.346 21.4267 406.533 20.6933 406.533 19.76C406.533 18.9333 406.36 18.2667 406.013 17.76C405.666 17.2533 405.213 16.88 404.653 16.64C404.093 16.3733 403.466 16.2 402.773 16.12C402.106 16.04 401.453 16 400.813 16H396.453V23.68H400.373ZM421.888 25.96C421.888 23.6933 422.262 21.64 423.008 19.8C423.755 17.9333 424.782 16.3467 426.088 15.04C427.422 13.7333 428.995 12.7333 430.808 12.04C432.648 11.32 434.662 10.96 436.848 10.96C439.062 10.9333 441.088 11.2667 442.928 11.96C444.768 12.6267 446.355 13.6133 447.688 14.92C449.022 16.2267 450.062 17.8 450.808 19.64C451.555 21.48 451.928 23.5333 451.928 25.8C451.928 28.0133 451.555 30.0267 450.808 31.84C450.062 33.6533 449.022 35.2133 447.688 36.52C446.355 37.8267 444.768 38.8533 442.928 39.6C441.088 40.32 439.062 40.6933 436.848 40.72C434.662 40.72 432.648 40.3733 430.808 39.68C428.995 38.96 427.422 37.96 426.088 36.68C424.782 35.3733 423.755 33.8133 423.008 32C422.262 30.1867 421.888 28.1733 421.888 25.96ZM427.168 25.64C427.168 27.16 427.395 28.56 427.848 29.84C428.328 31.12 428.995 32.2267 429.848 33.16C430.702 34.0933 431.715 34.8267 432.888 35.36C434.088 35.8933 435.422 36.16 436.888 36.16C438.355 36.16 439.688 35.8933 440.888 35.36C442.088 34.8267 443.115 34.0933 443.968 33.16C444.822 32.2267 445.475 31.12 445.928 29.84C446.408 28.56 446.648 27.16 446.648 25.64C446.648 24.2267 446.408 22.9067 445.928 21.68C445.475 20.4533 444.822 19.3867 443.968 18.48C443.115 17.5467 442.088 16.8267 440.888 16.32C439.688 15.7867 438.355 15.52 436.888 15.52C435.422 15.52 434.088 15.7867 432.888 16.32C431.715 16.8267 430.702 17.5467 429.848 18.48C428.995 19.3867 428.328 20.4533 427.848 21.68C427.395 22.9067 427.168 24.2267 427.168 25.64ZM488.689 37.92C485.195 39.7867 481.289 40.72 476.969 40.72C474.782 40.72 472.769 40.3733 470.929 39.68C469.115 38.96 467.542 37.96 466.209 36.68C464.902 35.3733 463.875 33.8133 463.129 32C462.382 30.1867 462.009 28.1733 462.009 25.96C462.009 23.6933 462.382 21.64 463.129 19.8C463.875 17.9333 464.902 16.3467 466.209 15.04C467.542 13.7333 469.115 12.7333 470.929 12.04C472.769 11.32 474.782 10.96 476.969 10.96C479.129 10.96 481.155 11.2267 483.049 11.76C484.942 12.2667 486.635 13.1867 488.129 14.52L484.409 18.28C483.502 17.4 482.395 16.72 481.089 16.24C479.809 15.76 478.449 15.52 477.009 15.52C475.542 15.52 474.209 15.7867 473.009 16.32C471.835 16.8267 470.822 17.5467 469.969 18.48C469.115 19.3867 468.449 20.4533 467.969 21.68C467.515 22.9067 467.289 24.2267 467.289 25.64C467.289 27.16 467.515 28.56 467.969 29.84C468.449 31.12 469.115 32.2267 469.969 33.16C470.822 34.0933 471.835 34.8267 473.009 35.36C474.209 35.8933 475.542 36.16 477.009 36.16C478.289 36.16 479.489 36.04 480.609 35.8C481.755 35.56 482.769 35.1867 483.649 34.68V28H477.849V23.44H488.689V37.92ZM501.462 11.68H511.302C512.662 11.68 513.968 11.8133 515.222 12.08C516.502 12.32 517.635 12.7467 518.622 13.36C519.608 13.9733 520.395 14.8 520.982 15.84C521.568 16.88 521.862 18.2 521.862 19.8C521.862 21.8533 521.288 23.5733 520.142 24.96C519.022 26.3467 517.408 27.1867 515.302 27.48L522.822 40H516.742L510.182 28H506.502V40H501.462V11.68ZM510.422 23.68C511.142 23.68 511.862 23.6533 512.582 23.6C513.302 23.52 513.955 23.36 514.542 23.12C515.155 22.8533 515.648 22.4667 516.022 21.96C516.395 21.4267 516.582 20.6933 516.582 19.76C516.582 18.9333 516.408 18.2667 516.062 17.76C515.715 17.2533 515.262 16.88 514.702 16.64C514.142 16.3733 513.515 16.2 512.822 16.12C512.155 16.04 511.502 16 510.862 16H506.502V23.68H510.422ZM542.617 11.68H546.977L559.177 40H553.417L550.777 33.52H538.497L535.937 40H530.297L542.617 11.68ZM549.017 29.2L544.657 17.68L540.217 29.2H549.017ZM569.244 11.68H576.924L584.484 31.52L592.124 11.68H599.724V40H594.924V16.48H594.844L586.244 40H582.724L574.124 16.48H574.044V40H569.244V11.68Z" fill="#1C1D21"/>
<defs>
<linearGradient id="paint0_linear_338_12459" x1="0" y1="120.5" x2="186" y2="120.5" gradientUnits="userSpaceOnUse">
<stop stop-color="#6C63FF"/>
<stop offset="1" stop-color="#FF4081"/>
</linearGradient>
<linearGradient id="paint1_linear_338_12459" x1="0" y1="40.5" x2="93" y2="40.5" gradientUnits="userSpaceOnUse">
<stop stop-color="#6C63FF"/>
<stop offset="1" stop-color="#FF4081"/>
</linearGradient>
<clipPath id="clip0_338_12459">
<rect width="186" height="160" fill="white" transform="translate(0 0.5)"/>
</clipPath>
</defs>
</svg>
