<svg width="882" height="298" viewBox="0 0 882 298" fill="none" xmlns="http://www.w3.org/2000/svg">
<g clip-path="url(#clip0_338_12459)">
<path d="M149 149C66.7048 149 0 215.705 0 298H149C231.295 298 298 231.295 298 149H149Z" fill="url(#paint0_linear_338_12459)"/>
<path d="M223.482 139.915C224.935 139.915 226.189 138.879 226.48 137.443C235.147 92.3074 241.289 86.1657 286.425 77.4982C288.079 77.1893 289.169 75.5903 288.842 73.9368C288.606 72.7011 287.661 71.7563 286.425 71.52C241.289 62.8526 235.111 56.7109 226.48 11.5748C226.171 9.92126 224.572 8.83102 222.918 9.15809C221.701 9.39431 220.738 10.3392 220.502 11.5748C211.834 56.7109 205.693 62.8526 160.556 71.52C158.903 71.8289 157.813 73.428 158.14 75.0815C158.376 76.3171 159.321 77.262 160.556 77.4982C205.693 86.1657 211.871 92.3437 220.502 137.443C220.774 138.879 222.028 139.915 223.5 139.915H223.482Z" fill="#FFA400"/>
<path d="M149 0V149H0C0 66.7593 66.7593 0 149 0Z" fill="url(#paint1_linear_338_12459)"/>
</g>
<path d="M441.384 133.099C437.944 126.469 433.167 121.496 427.052 118.18C420.936 114.737 413.866 113.016 405.84 113.016C397.049 113.016 389.214 114.993 382.335 118.945C375.455 122.898 370.041 128.509 366.091 135.777C362.269 143.046 360.358 151.461 360.358 161.025C360.358 170.589 362.269 179.068 366.091 186.464C370.041 193.732 375.455 199.343 382.335 203.296C389.214 207.249 397.049 209.225 405.84 209.225C417.688 209.225 427.306 205.91 434.695 199.279C442.085 192.648 446.607 183.659 448.263 172.31H398.387V154.904H471.577V171.927C470.176 182.256 466.481 191.756 460.494 200.427C454.633 209.098 446.926 216.047 437.371 221.275C427.943 226.376 417.433 228.926 405.84 228.926C393.355 228.926 381.952 226.057 371.633 220.319C361.314 214.453 353.097 206.356 346.982 196.028C340.994 185.699 338 174.031 338 161.025C338 148.019 340.994 136.351 346.982 126.022C353.097 115.694 361.314 107.66 371.633 101.922C382.08 96.0567 393.482 93.1239 405.84 93.1239C419.981 93.1239 432.53 96.6305 443.486 103.644C454.57 110.53 462.596 120.348 467.564 133.099H441.384Z" fill="#1C1D21"/>
<path d="M589.568 172.501C589.568 176.454 589.313 180.025 588.804 183.212H508.352C508.989 191.628 512.11 198.387 517.715 203.487C523.321 208.588 530.201 211.138 538.354 211.138C550.075 211.138 558.356 206.229 563.197 196.41H586.702C583.517 206.101 577.72 214.071 569.312 220.319C561.031 226.44 550.712 229.5 538.354 229.5C528.29 229.5 519.244 227.269 511.218 222.806C503.319 218.215 497.077 211.839 492.491 203.678C488.032 195.39 485.802 185.826 485.802 174.988C485.802 164.149 487.968 154.649 492.299 146.488C496.758 138.2 502.937 131.824 510.836 127.361C518.862 122.898 528.035 120.667 538.354 120.667C548.291 120.667 557.145 122.835 564.917 127.17C572.688 131.506 578.739 137.626 583.071 145.532C587.402 153.31 589.568 162.3 589.568 172.501ZM566.828 165.616C566.7 157.582 563.834 151.143 558.228 146.297C552.623 141.452 545.679 139.029 537.399 139.029C529.882 139.029 523.448 141.452 518.098 146.297C512.747 151.015 509.562 157.455 508.543 165.616H566.828Z" fill="#1C1D21"/>
<path d="M664.132 120.667C672.413 120.667 679.802 122.388 686.299 125.831C692.924 129.274 698.084 134.375 701.778 141.133C705.473 147.891 707.32 156.052 707.32 165.616V227.779H685.726V168.867C685.726 159.431 683.369 152.227 678.656 147.254C673.942 142.153 667.508 139.603 659.355 139.603C651.201 139.603 644.704 142.153 639.863 147.254C635.149 152.227 632.792 159.431 632.792 168.867V227.779H611.007V122.388H632.792V134.438C636.359 130.103 640.882 126.724 646.36 124.301C651.966 121.878 657.89 120.667 664.132 120.667Z" fill="#1C1D21"/>
<path d="M746.192 108.426C742.243 108.426 738.93 107.087 736.255 104.409C733.58 101.731 732.242 98.4157 732.242 94.4628C732.242 90.5098 733.58 87.1945 736.255 84.5167C738.93 81.8389 742.243 80.5 746.192 80.5C750.014 80.5 753.263 81.8389 755.938 84.5167C758.614 87.1945 759.951 90.5098 759.951 94.4628C759.951 98.4157 758.614 101.731 755.938 104.409C753.263 107.087 750.014 108.426 746.192 108.426ZM756.894 122.388V227.779H735.109V122.388H756.894Z" fill="#1C1D21"/>
<path d="M882 172.501C882 176.454 881.745 180.025 881.236 183.212H800.783C801.42 191.628 804.542 198.387 810.147 203.487C815.753 208.588 822.632 211.138 830.786 211.138C842.506 211.138 850.787 206.229 855.628 196.41H879.134C875.949 206.101 870.152 214.071 861.744 220.319C853.463 226.44 843.143 229.5 830.786 229.5C820.721 229.5 811.676 227.269 803.65 222.806C795.751 218.215 789.509 211.839 784.922 203.678C780.463 195.39 778.234 185.826 778.234 174.988C778.234 164.149 780.4 154.649 784.731 146.488C789.19 138.2 795.369 131.824 803.268 127.361C811.294 122.898 820.467 120.667 830.786 120.667C840.723 120.667 849.577 122.835 857.348 127.17C865.12 131.506 871.171 137.626 875.503 145.532C879.834 153.31 882 162.3 882 172.501ZM859.259 165.616C859.132 157.582 856.265 151.143 850.66 146.297C845.054 141.452 838.111 139.029 829.83 139.029C822.314 139.029 815.88 141.452 810.529 146.297C805.179 151.015 801.994 157.455 800.975 165.616H859.259Z" fill="#1C1D21"/>
<path d="M472.16 80.18H481.68C483.04 80.18 484.347 80.3133 485.6 80.58C486.88 80.8467 488 81.3 488.96 81.94C489.92 82.5533 490.68 83.3933 491.24 84.46C491.827 85.5 492.12 86.8067 492.12 88.38C492.12 90.1667 491.813 91.6067 491.2 92.7C490.587 93.7933 489.76 94.6467 488.72 95.26C487.68 95.8467 486.467 96.2467 485.08 96.46C483.72 96.6733 482.293 96.78 480.8 96.78H477.2V108.5H472.16V80.18ZM480.24 92.46C480.96 92.46 481.707 92.4333 482.48 92.38C483.253 92.3267 483.96 92.1667 484.6 91.9C485.267 91.6333 485.8 91.2333 486.2 90.7C486.627 90.1667 486.84 89.42 486.84 88.46C486.84 87.58 486.653 86.8867 486.28 86.38C485.907 85.8467 485.427 85.4467 484.84 85.18C484.253 84.8867 483.6 84.7 482.88 84.62C482.16 84.54 481.467 84.5 480.8 84.5H477.2V92.46H480.24ZM503.413 80.18H513.253C514.613 80.18 515.92 80.3133 517.173 80.58C518.453 80.82 519.586 81.2467 520.573 81.86C521.56 82.4733 522.346 83.3 522.933 84.34C523.52 85.38 523.813 86.7 523.813 88.3C523.813 90.3533 523.24 92.0733 522.093 93.46C520.973 94.8467 519.36 95.6867 517.253 95.98L524.773 108.5H518.693L512.133 96.5H508.453V108.5H503.413V80.18ZM512.373 92.18C513.093 92.18 513.813 92.1533 514.533 92.1C515.253 92.02 515.906 91.86 516.493 91.62C517.106 91.3533 517.6 90.9667 517.973 90.46C518.346 89.9267 518.533 89.1933 518.533 88.26C518.533 87.4333 518.36 86.7667 518.013 86.26C517.666 85.7533 517.213 85.38 516.653 85.14C516.093 84.8733 515.466 84.7 514.773 84.62C514.106 84.54 513.453 84.5 512.813 84.5H508.453V92.18H512.373ZM533.888 94.46C533.888 92.1933 534.262 90.14 535.008 88.3C535.755 86.4333 536.782 84.8467 538.088 83.54C539.422 82.2333 540.995 81.2333 542.808 80.54C544.648 79.82 546.662 79.46 548.848 79.46C551.062 79.4333 553.088 79.7667 554.928 80.46C556.768 81.1267 558.355 82.1133 559.688 83.42C561.022 84.7267 562.062 86.3 562.808 88.14C563.555 89.98 563.928 92.0333 563.928 94.3C563.928 96.5133 563.555 98.5267 562.808 100.34C562.062 102.153 561.022 103.713 559.688 105.02C558.355 106.327 556.768 107.353 554.928 108.1C553.088 108.82 551.062 109.193 548.848 109.22C546.662 109.22 544.648 108.873 542.808 108.18C540.995 107.46 539.422 106.46 538.088 105.18C536.782 103.873 535.755 102.313 535.008 100.5C534.262 98.6867 533.888 96.6733 533.888 94.46ZM539.168 94.14C539.168 95.66 539.395 97.06 539.848 98.34C540.328 99.62 540.995 100.727 541.848 101.66C542.702 102.593 543.715 103.327 544.888 103.86C546.088 104.393 547.422 104.66 548.888 104.66C550.355 104.66 551.688 104.393 552.888 103.86C554.088 103.327 555.115 102.593 555.968 101.66C556.822 100.727 557.475 99.62 557.928 98.34C558.408 97.06 558.648 95.66 558.648 94.14C558.648 92.7267 558.408 91.4067 557.928 90.18C557.475 88.9533 556.822 87.8867 555.968 86.98C555.115 86.0467 554.088 85.3267 552.888 84.82C551.688 84.2867 550.355 84.02 548.888 84.02C547.422 84.02 546.088 84.2867 544.888 84.82C543.715 85.3267 542.702 86.0467 541.848 86.98C540.995 87.8867 540.328 88.9533 539.848 90.18C539.395 91.4067 539.168 92.7267 539.168 94.14ZM600.689 106.42C597.195 108.287 593.289 109.22 588.969 109.22C586.782 109.22 584.769 108.873 582.929 108.18C581.115 107.46 579.542 106.46 578.209 105.18C576.902 103.873 575.875 102.313 575.129 100.5C574.382 98.6867 574.009 96.6733 574.009 94.46C574.009 92.1933 574.382 90.14 575.129 88.3C575.875 86.4333 576.902 84.8467 578.209 83.54C579.542 82.2333 581.115 81.2333 582.929 80.54C584.769 79.82 586.782 79.46 588.969 79.46C591.129 79.46 593.155 79.7267 595.049 80.26C596.942 80.7667 598.635 81.6867 600.129 83.02L596.409 86.78C595.502 85.9 594.395 85.22 593.089 84.74C591.809 84.26 590.449 84.02 589.009 84.02C587.542 84.02 586.209 84.2867 585.009 84.82C583.835 85.3267 582.822 86.0467 581.969 86.98C581.115 87.8867 580.449 88.9533 579.969 90.18C579.515 91.4067 579.289 92.7267 579.289 94.14C579.289 95.66 579.515 97.06 579.969 98.34C580.449 99.62 581.115 100.727 581.969 101.66C582.822 102.593 583.835 103.327 585.009 103.86C586.209 104.393 587.542 104.66 589.009 104.66C590.289 104.66 591.489 104.54 592.609 104.3C593.755 104.06 594.769 103.687 595.649 103.18V96.5H589.849V91.94H600.689V106.42ZM613.462 80.18H623.302C624.662 80.18 625.968 80.3133 627.222 80.58C628.502 80.82 629.635 81.2467 630.622 81.86C631.608 82.4733 632.395 83.3 632.982 84.34C633.568 85.38 633.862 86.7 633.862 88.3C633.862 90.3533 633.288 92.0733 632.142 93.46C631.022 94.8467 629.408 95.6867 627.302 95.98L634.822 108.5H628.742L622.182 96.5H618.502V108.5H613.462V80.18ZM622.422 92.18C623.142 92.18 623.862 92.1533 624.582 92.1C625.302 92.02 625.955 91.86 626.542 91.62C627.155 91.3533 627.648 90.9667 628.022 90.46C628.395 89.9267 628.582 89.1933 628.582 88.26C628.582 87.4333 628.408 86.7667 628.062 86.26C627.715 85.7533 627.262 85.38 626.702 85.14C626.142 84.8733 625.515 84.7 624.822 84.62C624.155 84.54 623.502 84.5 622.862 84.5H618.502V92.18H622.422ZM654.617 80.18H658.977L671.177 108.5H665.417L662.777 102.02H650.497L647.937 108.5H642.297L654.617 80.18ZM661.017 97.7L656.657 86.18L652.217 97.7H661.017ZM681.244 80.18H688.924L696.484 100.02L704.124 80.18H711.724V108.5H706.924V84.98H706.844L698.244 108.5H694.724L686.124 84.98H686.044V108.5H681.244V80.18Z" fill="#1C1D21"/>
<defs>
<linearGradient id="paint0_linear_338_12459" x1="0" y1="223.5" x2="298" y2="223.5" gradientUnits="userSpaceOnUse">
<stop stop-color="#6C63FF"/>
<stop offset="1" stop-color="#FF4081"/>
</linearGradient>
<linearGradient id="paint1_linear_338_12459" x1="0" y1="74.5" x2="149" y2="74.5" gradientUnits="userSpaceOnUse">
<stop stop-color="#6C63FF"/>
<stop offset="1" stop-color="#FF4081"/>
</linearGradient>
<clipPath id="clip0_338_12459">
<rect width="298" height="298" fill="white"/>
</clipPath>
</defs>
</svg>
