<svg width="744" height="160" viewBox="0 0 744 160" fill="none" xmlns="http://www.w3.org/2000/svg">
<g clip-path="url(#clip0_338_12459)">
<path d="M80 80C35.8146 80 0 115.815 0 160H80C124.185 160 160 124.185 160 80H80Z" fill="url(#paint0_linear_338_12459)"/>
<path d="M119.99 75.122C120.771 75.122 121.444 74.5659 121.6 73.7952C126.254 49.561 129.551 46.2635 153.785 41.6098C154.673 41.444 155.259 40.5854 155.083 39.6976C154.956 39.0342 154.449 38.5269 153.785 38.4001C129.551 33.7464 126.234 30.4488 121.6 6.21469C121.434 5.32688 120.576 4.74151 119.688 4.91712C119.034 5.04395 118.517 5.55127 118.39 6.21469C113.737 30.4488 110.439 33.7464 86.2049 38.4001C85.3171 38.5659 84.7317 39.4244 84.9074 40.3122C85.0342 40.9757 85.5415 41.483 86.2049 41.6098C110.439 46.2635 113.756 49.5805 118.39 73.7952C118.537 74.5659 119.21 75.122 120 75.122H119.99Z" fill="#FFA400"/>
<path d="M80 0V80H0C0 35.8439 35.8439 0 80 0Z" fill="url(#paint1_linear_338_12459)"/>
</g>
<path d="M303.384 64.1982C299.944 57.6087 295.167 52.6665 289.052 49.3717C282.936 45.9502 275.866 44.2395 267.84 44.2395C259.049 44.2395 251.214 46.2037 244.335 50.1321C237.455 54.0604 232.041 59.6362 228.091 66.8594C224.269 74.0825 222.358 82.4462 222.358 91.9503C222.358 101.454 224.269 109.881 228.091 117.231C232.041 124.454 237.455 130.03 244.335 133.959C251.214 137.887 259.049 139.851 267.84 139.851C279.688 139.851 289.306 136.556 296.695 129.967C304.085 123.377 308.607 114.443 310.263 103.165H260.387V85.8676H333.577V102.785C332.176 113.049 328.481 122.49 322.494 131.107C316.633 139.724 308.926 146.631 299.371 151.826C289.943 156.895 279.433 159.43 267.84 159.43C255.355 159.43 243.952 156.578 233.633 150.876C223.314 145.047 215.097 137 208.982 126.735C202.994 116.471 200 104.876 200 91.9503C200 79.0247 202.994 67.4296 208.982 57.1651C215.097 46.9007 223.314 38.9172 233.633 33.2147C244.08 27.3855 255.482 24.4709 267.84 24.4709C281.981 24.4709 294.53 27.9557 305.486 34.9254C316.57 41.7684 324.596 51.526 329.564 64.1982H303.384Z" fill="#1C1D21"/>
<path d="M451.568 103.355C451.568 107.284 451.313 110.832 450.804 114H370.352C370.989 122.364 374.11 129.08 379.715 134.149C385.321 139.218 392.201 141.752 400.354 141.752C412.075 141.752 420.356 136.873 425.197 127.116H448.702C445.517 136.746 439.72 144.667 431.312 150.876C423.031 156.959 412.712 160 400.354 160C390.29 160 381.244 157.782 373.218 153.347C365.319 148.785 359.077 142.449 354.491 134.339C350.032 126.102 347.802 116.598 347.802 105.826C347.802 95.055 349.968 85.6142 354.299 77.504C358.758 69.2671 364.937 62.931 372.836 58.4957C380.862 54.0604 390.035 51.8428 400.354 51.8428C410.291 51.8428 419.145 53.9971 426.917 58.3056C434.688 62.6142 440.739 68.6968 445.071 76.5536C449.402 84.2836 451.568 93.2175 451.568 103.355ZM428.828 96.5123C428.7 88.5288 425.834 82.1294 420.228 77.3139C414.623 72.4985 407.679 70.0908 399.399 70.0908C391.882 70.0908 385.448 72.4985 380.098 77.3139C374.747 82.0026 371.562 88.4021 370.543 96.5123H428.828Z" fill="#1C1D21"/>
<path d="M526.132 51.8428C534.413 51.8428 541.802 53.5536 548.299 56.975C554.924 60.3965 560.084 65.4654 563.778 72.1817C567.473 78.8979 569.32 87.0081 569.32 96.5123V158.289H547.726V99.7437C547.726 90.3663 545.369 83.2065 540.656 78.2643C535.942 73.1955 529.508 70.661 521.355 70.661C513.201 70.661 506.704 73.1955 501.863 78.2643C497.149 83.2065 494.792 90.3663 494.792 99.7437V158.289H473.007V53.5536H494.792V65.5288C498.359 61.2202 502.882 57.8621 508.36 55.4544C513.966 53.0467 519.89 51.8428 526.132 51.8428Z" fill="#1C1D21"/>
<path d="M608.192 39.6775C604.243 39.6775 600.93 38.3469 598.255 35.6858C595.58 33.0246 594.242 29.7298 594.242 25.8015C594.242 21.8731 595.58 18.5783 598.255 15.9172C600.93 13.256 604.243 11.9254 608.192 11.9254C612.014 11.9254 615.263 13.256 617.938 15.9172C620.614 18.5783 621.951 21.8731 621.951 25.8015C621.951 29.7298 620.614 33.0246 617.938 35.6858C615.263 38.3469 612.014 39.6775 608.192 39.6775ZM618.894 53.5536V158.289H597.109V53.5536H618.894Z" fill="#1C1D21"/>
<path d="M744 103.355C744 107.284 743.745 110.832 743.236 114H662.783C663.42 122.364 666.542 129.08 672.147 134.149C677.753 139.218 684.632 141.752 692.786 141.752C704.506 141.752 712.787 136.873 717.628 127.116H741.134C737.949 136.746 732.152 144.667 723.744 150.876C715.463 156.959 705.143 160 692.786 160C682.721 160 673.676 157.782 665.65 153.347C657.751 148.785 651.509 142.449 646.922 134.339C642.463 126.102 640.234 116.598 640.234 105.826C640.234 95.055 642.4 85.6142 646.731 77.504C651.19 69.2671 657.369 62.931 665.268 58.4957C673.294 54.0604 682.467 51.8428 692.786 51.8428C702.723 51.8428 711.577 53.9971 719.348 58.3056C727.12 62.6142 733.171 68.6968 737.503 76.5536C741.834 84.2836 744 93.2175 744 103.355ZM721.259 96.5123C721.132 88.5288 718.265 82.1294 712.66 77.3139C707.054 72.4985 700.111 70.0908 691.83 70.0908C684.314 70.0908 677.88 72.4985 672.529 77.3139C667.179 82.0026 663.994 88.4021 662.975 96.5123H721.259Z" fill="#1C1D21"/>
<path d="M334.16 11.68H343.68C345.04 11.68 346.347 11.8133 347.6 12.08C348.88 12.3467 350 12.8 350.96 13.44C351.92 14.0533 352.68 14.8933 353.24 15.96C353.827 17 354.12 18.3067 354.12 19.88C354.12 21.6667 353.813 23.1067 353.2 24.2C352.587 25.2933 351.76 26.1467 350.72 26.76C349.68 27.3467 348.467 27.7467 347.08 27.96C345.72 28.1733 344.293 28.28 342.8 28.28H339.2V40H334.16V11.68ZM342.24 23.96C342.96 23.96 343.707 23.9333 344.48 23.88C345.253 23.8267 345.96 23.6667 346.6 23.4C347.267 23.1333 347.8 22.7333 348.2 22.2C348.627 21.6667 348.84 20.92 348.84 19.96C348.84 19.08 348.653 18.3867 348.28 17.88C347.907 17.3467 347.427 16.9467 346.84 16.68C346.253 16.3867 345.6 16.2 344.88 16.12C344.16 16.04 343.467 16 342.8 16H339.2V23.96H342.24ZM365.413 11.68H375.253C376.613 11.68 377.92 11.8133 379.173 12.08C380.453 12.32 381.586 12.7467 382.573 13.36C383.56 13.9733 384.346 14.8 384.933 15.84C385.52 16.88 385.813 18.2 385.813 19.8C385.813 21.8533 385.24 23.5733 384.093 24.96C382.973 26.3467 381.36 27.1867 379.253 27.48L386.773 40H380.693L374.133 28H370.453V40H365.413V11.68ZM374.373 23.68C375.093 23.68 375.813 23.6533 376.533 23.6C377.253 23.52 377.906 23.36 378.493 23.12C379.106 22.8533 379.6 22.4667 379.973 21.96C380.346 21.4267 380.533 20.6933 380.533 19.76C380.533 18.9333 380.36 18.2667 380.013 17.76C379.666 17.2533 379.213 16.88 378.653 16.64C378.093 16.3733 377.466 16.2 376.773 16.12C376.106 16.04 375.453 16 374.813 16H370.453V23.68H374.373ZM395.888 25.96C395.888 23.6933 396.262 21.64 397.008 19.8C397.755 17.9333 398.782 16.3467 400.088 15.04C401.422 13.7333 402.995 12.7333 404.808 12.04C406.648 11.32 408.662 10.96 410.848 10.96C413.062 10.9333 415.088 11.2667 416.928 11.96C418.768 12.6267 420.355 13.6133 421.688 14.92C423.022 16.2267 424.062 17.8 424.808 19.64C425.555 21.48 425.928 23.5333 425.928 25.8C425.928 28.0133 425.555 30.0267 424.808 31.84C424.062 33.6533 423.022 35.2133 421.688 36.52C420.355 37.8267 418.768 38.8533 416.928 39.6C415.088 40.32 413.062 40.6933 410.848 40.72C408.662 40.72 406.648 40.3733 404.808 39.68C402.995 38.96 401.422 37.96 400.088 36.68C398.782 35.3733 397.755 33.8133 397.008 32C396.262 30.1867 395.888 28.1733 395.888 25.96ZM401.168 25.64C401.168 27.16 401.395 28.56 401.848 29.84C402.328 31.12 402.995 32.2267 403.848 33.16C404.702 34.0933 405.715 34.8267 406.888 35.36C408.088 35.8933 409.422 36.16 410.888 36.16C412.355 36.16 413.688 35.8933 414.888 35.36C416.088 34.8267 417.115 34.0933 417.968 33.16C418.822 32.2267 419.475 31.12 419.928 29.84C420.408 28.56 420.648 27.16 420.648 25.64C420.648 24.2267 420.408 22.9067 419.928 21.68C419.475 20.4533 418.822 19.3867 417.968 18.48C417.115 17.5467 416.088 16.8267 414.888 16.32C413.688 15.7867 412.355 15.52 410.888 15.52C409.422 15.52 408.088 15.7867 406.888 16.32C405.715 16.8267 404.702 17.5467 403.848 18.48C402.995 19.3867 402.328 20.4533 401.848 21.68C401.395 22.9067 401.168 24.2267 401.168 25.64ZM462.689 37.92C459.195 39.7867 455.289 40.72 450.969 40.72C448.782 40.72 446.769 40.3733 444.929 39.68C443.115 38.96 441.542 37.96 440.209 36.68C438.902 35.3733 437.875 33.8133 437.129 32C436.382 30.1867 436.009 28.1733 436.009 25.96C436.009 23.6933 436.382 21.64 437.129 19.8C437.875 17.9333 438.902 16.3467 440.209 15.04C441.542 13.7333 443.115 12.7333 444.929 12.04C446.769 11.32 448.782 10.96 450.969 10.96C453.129 10.96 455.155 11.2267 457.049 11.76C458.942 12.2667 460.635 13.1867 462.129 14.52L458.409 18.28C457.502 17.4 456.395 16.72 455.089 16.24C453.809 15.76 452.449 15.52 451.009 15.52C449.542 15.52 448.209 15.7867 447.009 16.32C445.835 16.8267 444.822 17.5467 443.969 18.48C443.115 19.3867 442.449 20.4533 441.969 21.68C441.515 22.9067 441.289 24.2267 441.289 25.64C441.289 27.16 441.515 28.56 441.969 29.84C442.449 31.12 443.115 32.2267 443.969 33.16C444.822 34.0933 445.835 34.8267 447.009 35.36C448.209 35.8933 449.542 36.16 451.009 36.16C452.289 36.16 453.489 36.04 454.609 35.8C455.755 35.56 456.769 35.1867 457.649 34.68V28H451.849V23.44H462.689V37.92ZM475.462 11.68H485.302C486.662 11.68 487.968 11.8133 489.222 12.08C490.502 12.32 491.635 12.7467 492.622 13.36C493.608 13.9733 494.395 14.8 494.982 15.84C495.568 16.88 495.862 18.2 495.862 19.8C495.862 21.8533 495.288 23.5733 494.142 24.96C493.022 26.3467 491.408 27.1867 489.302 27.48L496.822 40H490.742L484.182 28H480.502V40H475.462V11.68ZM484.422 23.68C485.142 23.68 485.862 23.6533 486.582 23.6C487.302 23.52 487.955 23.36 488.542 23.12C489.155 22.8533 489.648 22.4667 490.022 21.96C490.395 21.4267 490.582 20.6933 490.582 19.76C490.582 18.9333 490.408 18.2667 490.062 17.76C489.715 17.2533 489.262 16.88 488.702 16.64C488.142 16.3733 487.515 16.2 486.822 16.12C486.155 16.04 485.502 16 484.862 16H480.502V23.68H484.422ZM516.617 11.68H520.977L533.177 40H527.417L524.777 33.52H512.497L509.937 40H504.297L516.617 11.68ZM523.017 29.2L518.657 17.68L514.217 29.2H523.017ZM543.244 11.68H550.924L558.484 31.52L566.124 11.68H573.724V40H568.924V16.48H568.844L560.244 40H556.724L548.124 16.48H548.044V40H543.244V11.68Z" fill="#1C1D21"/>
<defs>
<linearGradient id="paint0_linear_338_12459" x1="0" y1="120" x2="160" y2="120" gradientUnits="userSpaceOnUse">
<stop stop-color="#6C63FF"/>
<stop offset="1" stop-color="#FF4081"/>
</linearGradient>
<linearGradient id="paint1_linear_338_12459" x1="0" y1="40" x2="80" y2="40" gradientUnits="userSpaceOnUse">
<stop stop-color="#6C63FF"/>
<stop offset="1" stop-color="#FF4081"/>
</linearGradient>
<clipPath id="clip0_338_12459">
<rect width="160" height="160" fill="white"/>
</clipPath>
</defs>
</svg>
